<mxfile host="app.diagrams.net" modified="2020-08-25T11:27:49.944Z" agent="5.0 (X11)" etag="Gzfv6uwBA7W6nN-wpzLN" version="13.6.4" type="github">
  <diagram id="MFr_lGqoYieM62LE-nzS" name="Page-1">
    <mxGraphModel dx="868" dy="423" grid="1" gridSize="10" guides="1" tooltips="1" connect="1" arrows="1" fold="1" page="1" pageScale="1" pageWidth="850" pageHeight="1100" background="#DAD2D8" math="0" shadow="1">
      <root>
        <mxCell id="0" />
        <mxCell id="1" parent="0" />
        <mxCell id="A9R5nu_z_eYa3V--bHaD-24" style="edgeStyle=orthogonalEdgeStyle;rounded=0;orthogonalLoop=1;jettySize=auto;html=1;entryX=0;entryY=0.5;entryDx=0;entryDy=0;labelBackgroundColor=#DAD2D8;strokeColor=#A8201A;fontColor=#143642;" edge="1" parent="1" source="A9R5nu_z_eYa3V--bHaD-1" target="A9R5nu_z_eYa3V--bHaD-3">
          <mxGeometry relative="1" as="geometry" />
        </mxCell>
        <mxCell id="A9R5nu_z_eYa3V--bHaD-25" style="edgeStyle=orthogonalEdgeStyle;rounded=0;orthogonalLoop=1;jettySize=auto;html=1;entryX=0;entryY=0.5;entryDx=0;entryDy=0;labelBackgroundColor=#DAD2D8;strokeColor=#A8201A;fontColor=#143642;" edge="1" parent="1" source="A9R5nu_z_eYa3V--bHaD-1" target="A9R5nu_z_eYa3V--bHaD-4">
          <mxGeometry relative="1" as="geometry" />
        </mxCell>
        <mxCell id="A9R5nu_z_eYa3V--bHaD-26" style="edgeStyle=orthogonalEdgeStyle;rounded=0;orthogonalLoop=1;jettySize=auto;html=1;entryX=0;entryY=0.5;entryDx=0;entryDy=0;labelBackgroundColor=#DAD2D8;strokeColor=#A8201A;fontColor=#143642;" edge="1" parent="1" source="A9R5nu_z_eYa3V--bHaD-1" target="A9R5nu_z_eYa3V--bHaD-5">
          <mxGeometry relative="1" as="geometry" />
        </mxCell>
        <mxCell id="A9R5nu_z_eYa3V--bHaD-27" style="edgeStyle=orthogonalEdgeStyle;rounded=0;orthogonalLoop=1;jettySize=auto;html=1;entryX=0;entryY=0.5;entryDx=0;entryDy=0;labelBackgroundColor=#DAD2D8;strokeColor=#A8201A;fontColor=#143642;" edge="1" parent="1" source="A9R5nu_z_eYa3V--bHaD-1" target="A9R5nu_z_eYa3V--bHaD-6">
          <mxGeometry relative="1" as="geometry" />
        </mxCell>
        <mxCell id="A9R5nu_z_eYa3V--bHaD-28" style="edgeStyle=orthogonalEdgeStyle;rounded=0;orthogonalLoop=1;jettySize=auto;html=1;entryX=0;entryY=0.5;entryDx=0;entryDy=0;labelBackgroundColor=#DAD2D8;strokeColor=#A8201A;fontColor=#143642;" edge="1" parent="1" source="A9R5nu_z_eYa3V--bHaD-1" target="A9R5nu_z_eYa3V--bHaD-7">
          <mxGeometry relative="1" as="geometry" />
        </mxCell>
        <mxCell id="A9R5nu_z_eYa3V--bHaD-29" style="edgeStyle=orthogonalEdgeStyle;rounded=0;orthogonalLoop=1;jettySize=auto;html=1;entryX=0;entryY=0.5;entryDx=0;entryDy=0;labelBackgroundColor=#DAD2D8;strokeColor=#A8201A;fontColor=#143642;" edge="1" parent="1" source="A9R5nu_z_eYa3V--bHaD-1" target="A9R5nu_z_eYa3V--bHaD-8">
          <mxGeometry relative="1" as="geometry" />
        </mxCell>
        <mxCell id="A9R5nu_z_eYa3V--bHaD-1" value="Actor" style="shape=umlActor;verticalLabelPosition=bottom;verticalAlign=top;html=1;outlineConnect=0;fillColor=#FAE5C7;strokeColor=#0F8B8D;fontColor=#143642;" vertex="1" parent="1">
          <mxGeometry x="50" y="150" width="30" height="60" as="geometry" />
        </mxCell>
        <mxCell id="A9R5nu_z_eYa3V--bHaD-20" style="edgeStyle=orthogonalEdgeStyle;rounded=0;orthogonalLoop=1;jettySize=auto;html=1;entryX=1;entryY=0.5;entryDx=0;entryDy=0;labelBackgroundColor=#DAD2D8;strokeColor=#A8201A;fontColor=#143642;" edge="1" parent="1" source="A9R5nu_z_eYa3V--bHaD-2" target="A9R5nu_z_eYa3V--bHaD-6">
          <mxGeometry relative="1" as="geometry" />
        </mxCell>
        <mxCell id="A9R5nu_z_eYa3V--bHaD-21" style="edgeStyle=orthogonalEdgeStyle;rounded=0;orthogonalLoop=1;jettySize=auto;html=1;entryX=1;entryY=0.5;entryDx=0;entryDy=0;labelBackgroundColor=#DAD2D8;strokeColor=#A8201A;fontColor=#143642;" edge="1" parent="1" source="A9R5nu_z_eYa3V--bHaD-2" target="A9R5nu_z_eYa3V--bHaD-9">
          <mxGeometry relative="1" as="geometry" />
        </mxCell>
        <mxCell id="A9R5nu_z_eYa3V--bHaD-22" style="edgeStyle=orthogonalEdgeStyle;rounded=0;orthogonalLoop=1;jettySize=auto;html=1;entryX=1;entryY=0.5;entryDx=0;entryDy=0;labelBackgroundColor=#DAD2D8;strokeColor=#A8201A;fontColor=#143642;" edge="1" parent="1" source="A9R5nu_z_eYa3V--bHaD-2" target="A9R5nu_z_eYa3V--bHaD-14">
          <mxGeometry relative="1" as="geometry" />
        </mxCell>
        <mxCell id="A9R5nu_z_eYa3V--bHaD-23" style="edgeStyle=orthogonalEdgeStyle;rounded=0;orthogonalLoop=1;jettySize=auto;html=1;entryX=1;entryY=0.5;entryDx=0;entryDy=0;labelBackgroundColor=#DAD2D8;strokeColor=#A8201A;fontColor=#143642;" edge="1" parent="1" source="A9R5nu_z_eYa3V--bHaD-2" target="A9R5nu_z_eYa3V--bHaD-5">
          <mxGeometry relative="1" as="geometry" />
        </mxCell>
        <mxCell id="A9R5nu_z_eYa3V--bHaD-2" value="Actor" style="shape=umlActor;verticalLabelPosition=bottom;verticalAlign=top;html=1;outlineConnect=0;fillColor=#FAE5C7;strokeColor=#0F8B8D;fontColor=#143642;" vertex="1" parent="1">
          <mxGeometry x="760" y="320" width="30" height="60" as="geometry" />
        </mxCell>
        <mxCell id="A9R5nu_z_eYa3V--bHaD-3" value="&lt;div&gt;Menerima Pesanan&lt;/div&gt;&lt;div&gt;&lt;br&gt;&lt;/div&gt;" style="ellipse;whiteSpace=wrap;html=1;fillColor=#FAE5C7;strokeColor=#0F8B8D;fontColor=#143642;" vertex="1" parent="1">
          <mxGeometry x="350" width="120" height="80" as="geometry" />
        </mxCell>
        <mxCell id="A9R5nu_z_eYa3V--bHaD-4" value="Perawatan" style="ellipse;whiteSpace=wrap;html=1;fillColor=#FAE5C7;strokeColor=#0F8B8D;fontColor=#143642;" vertex="1" parent="1">
          <mxGeometry x="350" y="90" width="120" height="80" as="geometry" />
        </mxCell>
        <mxCell id="A9R5nu_z_eYa3V--bHaD-5" value="Registrasi administrasi" style="ellipse;whiteSpace=wrap;html=1;fillColor=#FAE5C7;strokeColor=#0F8B8D;fontColor=#143642;" vertex="1" parent="1">
          <mxGeometry x="350" y="180" width="120" height="80" as="geometry" />
        </mxCell>
        <mxCell id="A9R5nu_z_eYa3V--bHaD-6" value="Pembayaran" style="ellipse;whiteSpace=wrap;html=1;fillColor=#FAE5C7;strokeColor=#0F8B8D;fontColor=#143642;" vertex="1" parent="1">
          <mxGeometry x="350" y="270" width="120" height="80" as="geometry" />
        </mxCell>
        <mxCell id="A9R5nu_z_eYa3V--bHaD-7" value="Pembukuan" style="ellipse;whiteSpace=wrap;html=1;fillColor=#FAE5C7;strokeColor=#0F8B8D;fontColor=#143642;" vertex="1" parent="1">
          <mxGeometry x="350" y="360" width="120" height="80" as="geometry" />
        </mxCell>
        <mxCell id="A9R5nu_z_eYa3V--bHaD-8" value="Penjadwalan" style="ellipse;whiteSpace=wrap;html=1;fillColor=#FAE5C7;strokeColor=#0F8B8D;fontColor=#143642;" vertex="1" parent="1">
          <mxGeometry x="350" y="450" width="120" height="80" as="geometry" />
        </mxCell>
        <mxCell id="A9R5nu_z_eYa3V--bHaD-9" value="Melakukan pemesanan" style="ellipse;whiteSpace=wrap;html=1;fillColor=#FAE5C7;strokeColor=#0F8B8D;fontColor=#143642;" vertex="1" parent="1">
          <mxGeometry x="350" y="540" width="120" height="80" as="geometry" />
        </mxCell>
        <mxCell id="A9R5nu_z_eYa3V--bHaD-10" value="Penjemputan" style="ellipse;whiteSpace=wrap;html=1;fillColor=#FAE5C7;strokeColor=#0F8B8D;fontColor=#143642;" vertex="1" parent="1">
          <mxGeometry x="350" y="900" width="120" height="80" as="geometry" />
        </mxCell>
        <mxCell id="A9R5nu_z_eYa3V--bHaD-11" value="" style="ellipse;whiteSpace=wrap;html=1;fillColor=#FAE5C7;strokeColor=#0F8B8D;fontColor=#143642;" vertex="1" parent="1">
          <mxGeometry x="360" y="1260" width="120" height="80" as="geometry" />
        </mxCell>
        <mxCell id="A9R5nu_z_eYa3V--bHaD-12" value="Menunjukkan jalan/ tujuan destinasi" style="ellipse;whiteSpace=wrap;html=1;fillColor=#FAE5C7;strokeColor=#0F8B8D;fontColor=#143642;" vertex="1" parent="1">
          <mxGeometry x="350" y="810" width="120" height="80" as="geometry" />
        </mxCell>
        <mxCell id="A9R5nu_z_eYa3V--bHaD-13" value="Mengemudikan" style="ellipse;whiteSpace=wrap;html=1;fillColor=#FAE5C7;strokeColor=#0F8B8D;fontColor=#143642;" vertex="1" parent="1">
          <mxGeometry x="350" y="720" width="120" height="80" as="geometry" />
        </mxCell>
        <mxCell id="A9R5nu_z_eYa3V--bHaD-14" value="Membatalkan pesanan" style="ellipse;whiteSpace=wrap;html=1;fillColor=#FAE5C7;strokeColor=#0F8B8D;fontColor=#143642;" vertex="1" parent="1">
          <mxGeometry x="350" y="630" width="120" height="80" as="geometry" />
        </mxCell>
        <mxCell id="A9R5nu_z_eYa3V--bHaD-17" style="edgeStyle=orthogonalEdgeStyle;rounded=0;orthogonalLoop=1;jettySize=auto;html=1;entryX=0;entryY=0.5;entryDx=0;entryDy=0;labelBackgroundColor=#DAD2D8;strokeColor=#A8201A;fontColor=#143642;" edge="1" parent="1" source="A9R5nu_z_eYa3V--bHaD-15" target="A9R5nu_z_eYa3V--bHaD-13">
          <mxGeometry relative="1" as="geometry" />
        </mxCell>
        <mxCell id="A9R5nu_z_eYa3V--bHaD-18" style="edgeStyle=orthogonalEdgeStyle;rounded=0;orthogonalLoop=1;jettySize=auto;html=1;entryX=0;entryY=0.5;entryDx=0;entryDy=0;labelBackgroundColor=#DAD2D8;strokeColor=#A8201A;fontColor=#143642;" edge="1" parent="1" target="A9R5nu_z_eYa3V--bHaD-12">
          <mxGeometry relative="1" as="geometry">
            <mxPoint x="110" y="810" as="sourcePoint" />
          </mxGeometry>
        </mxCell>
        <mxCell id="A9R5nu_z_eYa3V--bHaD-19" style="edgeStyle=orthogonalEdgeStyle;rounded=0;orthogonalLoop=1;jettySize=auto;html=1;entryX=0;entryY=0.5;entryDx=0;entryDy=0;labelBackgroundColor=#DAD2D8;strokeColor=#A8201A;fontColor=#143642;" edge="1" parent="1" source="A9R5nu_z_eYa3V--bHaD-15" target="A9R5nu_z_eYa3V--bHaD-10">
          <mxGeometry relative="1" as="geometry" />
        </mxCell>
        <mxCell id="A9R5nu_z_eYa3V--bHaD-15" value="&lt;div&gt;Driver&lt;/div&gt;&lt;div&gt;&lt;br&gt;&lt;/div&gt;" style="shape=umlActor;verticalLabelPosition=bottom;verticalAlign=top;html=1;outlineConnect=0;fillColor=#FAE5C7;strokeColor=#0F8B8D;fontColor=#143642;" vertex="1" parent="1">
          <mxGeometry x="80" y="780" width="30" height="60" as="geometry" />
        </mxCell>
      </root>
    </mxGraphModel>
  </diagram>
</mxfile>
